HIERARCHY
ROOT Hips
{
  OFFSET 40.9192 92.6879 18.85
  CHANNELS 6 Xposition Yposition Zposition Zrotation Xrotation Yrotation
  JOINT LeftUpLeg
  {
    OFFSET 8.64259 1.95398 -2.38835
    CHANNELS 3 Zrotation Xrotation Yrotation
    JOINT LeftLeg
    {
      OFFSET 43.7702 0 0
      CHANNELS 3 Zrotation Xrotation Yrotation
      JOINT LeftFoot
      {
        OFFSET 40.6238 0 0
        CHANNELS 3 Zrotation Xrotation Yrotation
        JOINT LeftToeBase
        {
          OFFSET 12.7242 0 0
          CHANNELS 3 Zrotation Xrotation Yrotation
          End Site
          {
            OFFSET 0 0 0
          }
        }
      }
    }
  }
  JOINT RightUpLeg
  {
    OFFSET -8.2249 1.95398 -2.59336
    CHANNELS 3 Zrotation Xrotation Yrotation
    JOINT RightLeg
    {
      OFFSET 43.5653 0 0
      CHANNELS 3 Zrotation Xrotation Yrotation
      JOINT RightFoot
      {
        OFFSET 40.6238 0 0
        CHANNELS 3 Zrotation Xrotation Yrotation
        JOINT RightToeBase
        {
          OFFSET 12.7242 0 0
          CHANNELS 3 Zrotation Xrotation Yrotation
          End Site
          {
            OFFSET 0 0 0
          }
        }
      }
    }
  }
  JOINT Spine
  {
    OFFSET 0.165834 0.87714 6.61349
    CHANNELS 3 Zrotation Xrotation Yrotation
    JOINT Spine1
    {
      OFFSET 7.38963 1.71661e-005 0
      CHANNELS 3 Zrotation Xrotation Yrotation
      JOINT Spine2
      {
        OFFSET 11.9445 1.14441e-005 0
        CHANNELS 3 Zrotation Xrotation Yrotation
        JOINT Spine3
        {
          OFFSET 14.7254 4.19617e-005 0
          CHANNELS 3 Zrotation Xrotation Yrotation
          JOINT Spine4
          {
            OFFSET 10.9679 0 0
            CHANNELS 3 Zrotation Xrotation Yrotation
            JOINT RightShoulder
            {
              OFFSET 2.46616 -1.6653 3.69651
              CHANNELS 3 Zrotation Xrotation Yrotation
              JOINT RightArm
              {
                OFFSET 13.0012 0 0
                CHANNELS 3 Zrotation Xrotation Yrotation
                JOINT RightForeArm
                {
                  OFFSET 28.7848 1.52588e-005 0
                  CHANNELS 3 Zrotation Xrotation Yrotation
                  JOINT RightHand
                  {
                    OFFSET 26.5688 1.52588e-005 0
                    CHANNELS 3 Zrotation Xrotation Yrotation
                    End Site
                    {
                      OFFSET 0 0 0
                    }
                  }
                }
              }
            }
            JOINT LeftShoulder
            {
              OFFSET 2.38034 -1.29275 -3.7523
              CHANNELS 3 Zrotation Xrotation Yrotation
              JOINT LeftArm
              {
                OFFSET 16.3182 6.10351e-005 0
                CHANNELS 3 Zrotation Xrotation Yrotation
                JOINT LeftForeArm
                {
                  OFFSET 27.0901 0 0
                  CHANNELS 3 Zrotation Xrotation Yrotation
                  JOINT LeftHand
                  {
                    OFFSET 24.5451 1.52588e-005 0
                    CHANNELS 3 Zrotation Xrotation Yrotation
                    End Site
                    {
                      OFFSET 0 0 0
                    }
                  }
                }
              }
            }
            JOINT Neck
            {
              OFFSET 5.0226 -0.0266342 0
              CHANNELS 3 Zrotation Xrotation Yrotation
              JOINT Head
              {
                OFFSET 6.69363 2.86102e-005 0
                CHANNELS 3 Zrotation Xrotation Yrotation
                End Site
                {
                  OFFSET 0 0 0
                }
              }
            }
          }
        }
      }
    }
  }
}
MOTION
Frames:	12
Frame Time:	0.0416667
64.4285 78.9572 -4.99902 -88.6168 -0.44867 -89.9586 -176.447 46.4215 110.43 -64.567 22.9039 1.50929 57.8557 0.672957 9.89439 54.0538 19.5586 -0.482111 179.004 41.7203 91.2996 -93.3696 5.37266 -2.82398 72.396 -10.8577 -5.42424 48.0708 0.166091 -7.66254 0.128187 9.34388 -88.5429 8.16608 0.895628 2.82735 -3.50753 1.01915 2.78524 -26.018 0.00487942 2.96569 -6.00538 0.00488423 2.96569 91.4974 -48.1145 -98.9212 26.4145 -9.06079 2.01068 -18.2724 -27.2575 -55.2596 -11.7695 -1.07149 3.38529 -93.4683 -37.8411 69.8222 -13.598 -16.22 -1.92131 16.2799 2.57604 -76.0877 27.6926 2.66187 5.79201 0.712871 -33.6343 2.10874 -9.20987 -32.381 -35.6162 
63.5726 79.2092 -5.96487 -87.5629 1.9546 -90.5414 -175.415 45.6401 111.636 -63.2486 22.8848 1.30721 57.7582 0.906172 11.4067 54.518 20.1368 0.396249 175.728 44.691 92.791 -93.5206 6.30463 -2.23898 72.5606 -10.9449 -5.42927 46.8742 0.0177153 -9.46054 -0.0574912 9.33116 -88.597 8.19743 0.501874 2.74337 -3.47627 0.622102 2.71865 -25.9883 -0.345465 2.76741 -5.97565 -0.345482 2.76739 91.3656 -48.4463 -99.0551 26.2746 -11.2444 5.49726 -20.5091 -30.8173 -56.5683 -9.71557 -0.955201 3.04987 -92.4266 -36.7352 71.2231 -14.2132 -12.7612 -3.32877 16.962 2.52639 -77.5645 30.4608 3.06098 6.3112 1.09204 -32.7004 1.98513 -7.51522 -31.9057 -34.2952 
62.4286 79.7691 -7.21936 -86.5056 4.93271 -90.6722 -173.907 43.6581 112.164 -60.9523 20.718 1.14217 58.206 1.36601 10.3954 54.0373 20.0866 1.68625 173.234 47.3996 92.9578 -92.7185 8.06735 -1.81954 73.771 -11.407 -5.50155 46.3398 0.268421 -6.83086 -0.170474 9.27716 -88.6549 8.30902 0.252072 2.64381 -3.36457 0.368123 2.63016 -25.8787 -0.553888 2.59743 -5.86606 -0.553909 2.59742 92.1375 -49.3571 -97.6658 26.4753 -12.8261 9.94754 -22.934 -31.8011 -58.6827 -6.09196 -0.797976 2.11389 -92.7391 -36.5311 70.6125 -13.2768 -9.8348 -1.60183 20.3553 1.95422 -80.6534 27.0806 2.47647 5.3743 2.60358 -32.0768 1.89472 -6.3614 -31.5721 -32.3754 
60.879 80.7295 -8.97469 -86.1351 9.0587 -91.9918 -170.676 39.4482 111.994 -56.6114 20.2519 0.268267 56.6602 0.169796 10.8099 55.3406 21.2144 2.0333 172.096 49.649 91.4731 -91.5859 5.7333 -1.59786 71.2765 -9.59423 -4.86905 49.33 -0.0550145 -9.44677 -0.2846 9.21626 -88.7715 8.43514 -0.0256806 2.43073 -3.23807 0.0812768 2.42949 -25.7563 -0.754837 2.31076 -5.74363 -0.754848 2.31075 92.2706 -48.5382 -97.6189 27.293 -15.2071 15.0468 -21.9832 -30.8957 -60.2365 -9.64888 -0.805955 1.39783 -92.9441 -37.3198 70.5335 -13.7295 -5.87204 1.65595 19.9581 1.35831 -81.6653 26.7341 2.48685 5.53945 5.4039 -31.4299 4.20104 -5.90895 -31.3527 -30.9967 
58.7581 82.2123 -11.3988 -85.9558 14.5597 -94.2381 -166.332 32.196 111.457 -49.3041 18.8982 -1.29418 55.1693 -1.23626 9.80442 55.4177 21.5129 2.89939 170.52 50.7509 89.8436 -89.225 4.91213 -1.15251 70.3706 -8.30625 -4.29461 51.4392 -0.149332 -9.6809 -0.338441 9.05668 -88.8493 8.75655 -0.164195 2.2882 -2.91639 -0.0633462 2.2932 -25.4371 -0.844125 2.13321 -5.42447 -0.844146 2.1332 92.6204 -47.6389 -97.2445 28.569 -17.1772 20.0346 -22.4827 -30.4837 -62.4978 -11.2287 -0.792592 1.04708 -92.7527 -38.7591 71.3437 -15.2133 -0.792335 5.58158 24.1728 2.52684 -80.3541 25.9698 2.79953 7.03591 7.04453 -29.8966 6.37708 -5.03554 -30.4053 -29.1456 
56.1052 84.2967 -14.6029 -85.1223 20.7504 -97.3631 -162.842 21.8135 110.654 -37.9025 13.3834 -2.64835 53.3504 -2.98301 2.48832 52.4625 20.1441 7.12944 167.749 50.8712 88.7651 -85.6052 3.86833 -0.240443 73.1706 -8.13511 -4.00806 48.1799 -0.255921 -11.5719 -0.315129 8.74911 -88.9151 9.37194 -0.140831 2.16049 -2.30079 -0.0456176 2.16459 -24.823 -0.783525 2.01838 -4.81036 -0.783508 2.0184 92.9746 -46.7275 -96.8538 30.6114 -16.9924 24.4376 -22.6372 -29.1484 -62.4688 -11.4235 -0.627262 -0.484902 -92.6689 -40.6598 72.0954 -18.2195 3.68382 9.8047 24.9311 5.02606 -75.6552 26.9788 3.12563 7.86576 7.43128 -27.7437 8.00989 -3.5925 -28.8679 -25.9076 
53.112 86.3393 -18.7004 -83.298 26.6398 -101.407 -161.601 11.5168 109.184 -26.1752 6.60566 -2.79873 45.3801 -8.24154 -5.5156 48.9261 17.8306 10.8994 164.529 50.6617 87.9026 -81.4805 2.47751 1.15265 73.195 -7.20307 -3.56861 50.359 0.087133 -7.96696 -0.251344 8.4273 -88.9333 10.0146 -0.0157 2.11852 -1.6581 0.0775168 2.11715 -24.1803 -0.651532 2.01595 -4.1677 -0.651541 2.01594 93.345 -47.3853 -96.1398 30.1384 -17.3475 25.8435 -19.5389 -27.714 -61.5848 -11.8473 -0.62701 -0.459469 -92.1673 -41.46 73.1646 -22.605 6.53747 13.0949 22.2137 8.07398 -68.4216 28.9978 3.33424 7.78361 6.80372 -25.3007 8.19964 -1.09369 -26.8429 -21.0029 
50.5037 88.06 -23.4535 -80.6564 31.3589 -105.155 -162.665 3.56572 107.652 -15.9299 2.06973 -1.36644 33.6723 -13.3833 -12.0324 38.6506 8.61544 18.8101 160.964 49.4777 88.7687 -77.0824 1.49075 3.19849 75.0665 -7.18757 -3.45219 48.161 0.0476022 -8.70343 -0.275265 8.18802 -89.1241 10.4954 -0.146252 1.75303 -1.17675 -0.0689456 1.75776 -23.7035 -0.666276 1.62809 -3.69082 -0.666267 1.62809 92.4937 -47.9603 -97.3837 28.3945 -16.1302 25.359 -20.6369 -27.3084 -62.0982 -13.6384 -0.612792 -0.625544 -91.1232 -42.0743 75.0454 -27.4915 8.1476 15.1977 17.1034 9.73539 -60.2798 30.8249 3.47738 7.56011 7.06193 -23.0564 9.47119 1.30088 -25.0849 -17.3239 
48.4077 89.0471 -28.7291 -76.7688 36.3731 -110.083 -166.099 0.56068 104.284 -15.5712 5.65381 0.24675 31.8919 -14.1234 -10.1621 31.8901 1.464 15.479 160.395 48.0292 89.7206 -72.9426 1.60607 4.48656 72.4624 -5.77724 -2.90217 47.459 -0.127816 -10.9546 -0.169367 8.10577 -89.2749 10.6606 -0.00335249 1.44225 -1.01117 0.0601241 1.441 -23.5404 -0.436619 1.37459 -3.52774 -0.436628 1.37458 93.3129 -49.8355 -95.757 23.9559 -14.5297 21.4431 -19.814 -24.9566 -62.3066 -16.587 -0.603743 -0.976918 -91.0299 -42.7362 75.3774 -32.123 8.28702 17.6143 13.0837 9.69513 -54.614 32.8562 3.74266 7.66352 8.90013 -21.0301 10.8302 3.68341 -23.615 -14.8615 
46.5867 88.7245 -33.7988 -71.8965 42.5107 -114.747 -168.645 4.23419 101.448 -29.4657 10.4491 0.636594 40.5631 -10.4259 -6.129 31.1311 0.694376 15.3234 162.307 44.1021 91.4778 -67.8025 0.931616 5.03806 69.459 -4.55397 -2.44839 45.1157 0.416017 -5.13573 0.0366434 8.14876 -89.4518 10.5733 0.324922 1.06072 -1.09809 0.371279 1.04539 -23.6297 -0.00886708 1.10933 -3.61708 -0.00887283 1.10932 93.5973 -51.4094 -95.0586 19.4235 -13.6351 15.9213 -19.9623 -21.9372 -65.5261 -22.7089 -0.849315 0.0858503 -90.7266 -43.3126 76.0193 -36.3995 8.36988 21.0043 10.2861 8.62159 -51.3765 30.9325 3.50452 7.60416 10.8092 -18.9795 11.6913 6.21443 -22.0306 -12.7547 
44.9216 87.2334 -38.9966 -66.9612 48.8606 -118.513 -169.414 9.6462 100.407 -45.6859 15.8481 0.177649 44.8293 -8.9536 -2.2337 33.6247 3.36281 12.8313 166.101 37.1986 93.5034 -63.9929 0.761567 4.89652 77.7433 -7.49458 -3.42829 44.7801 0.491626 -4.07809 0.322442 8.36002 -89.7176 10.152 0.771339 0.49559 -1.51875 0.792396 0.461159 -24.0543 0.586726 0.704493 -4.04168 0.586736 0.704498 93.0595 -50.5227 -96.0283 17.8089 -11.3817 9.73836 -23.4205 -19.0234 -70.3934 -28.0502 -1.15922 0.944915 -90.7861 -44.6685 76.2729 -39.5857 11.3843 23.9192 9.13075 9.94973 -48.369 28.449 3.21378 7.57691 13.2854 -16.9886 13.4007 8.19658 -20.7057 -11.1013 
43.7326 86.3918 -44.1253 -59.7443 52.4069 -124.103 -170.451 19.5278 99.1183 -60.6977 19.8679 -0.0780765 45.6178 -8.18942 -1.88002 35.9511 5.64882 11.9974 168.539 33.9409 95.65 -61.1818 0.633537 4.2166 81.1642 -8.65452 -3.65727 44.5274 0.636457 -2.10453 0.654093 8.33127 -89.9392 10.2116 1.33112 0.00732802 -1.4587 1.33016 -0.0512902 -23.9989 1.26737 0.407113 -3.98624 1.26738 0.407104 92.7453 -49.2617 -96.741 17.2503 -10.4884 4.41097 -25.4942 -14.0328 -76.1977 -33.566 -0.522257 -1.69232 -91.6016 -45.8667 75.3012 -42.0795 15.4851 26.2067 8.71659 13.4824 -44.0057 19.9443 1.70831 4.77995 15.6482 -15.4269 14.8126 9.37082 -19.7107 -9.73651 
